C:\Users\israe\Dropbox\PhDWork\ExperimentalData/subject1/100/P1S100W01_EMG(MVC)_40ms.mot
nRows=32
nColumns=16

name C:\Users\israe\Dropbox\PhDWork\ExperimentalData/subject1/100/P1S100W01_EMG(MVC)_40ms.mot
datacolumns 16
datarows 32
range 0.0400000000 0.0710000000
endheader
time	BF	ST	VL	VM	RF	TFL	GE	GA	TA	GL	GM	SO	ES	MF	VI_a
        0.0400000000	       -0.0071125277	       -0.0314646985	       -0.0013920416	        0.0069317543	        0.0024668549	       -0.0143702206	       -0.0293213993	        0.0027940962	       -0.0370601259	       -0.2060716809	        0.0278056720	       -0.1290409003	       -0.0987798019	        0.1548563661	        0.0027698564	
        0.0410000000	       -0.0041344070	       -0.0287862847	       -0.0010076169	        0.0074060981	        0.0029053076	       -0.0128584957	       -0.0260851768	        0.0032275916	       -0.0335336294	       -0.1846511176	        0.0483199255	       -0.1158144397	       -0.0638291713	        0.1780699922	        0.0031992406	
        0.0420000000	       -0.0011632598	       -0.0261327437	       -0.0006253412	        0.0078799316	        0.0033432309	       -0.0113566391	       -0.0228708662	        0.0036618664	       -0.0300403341	       -0.1634568515	        0.0686986536	       -0.1027028712	       -0.0290441248	        0.2013228641	        0.0036272952	
        0.0430000000	        0.0017942572	       -0.0235089642	       -0.0002459630	        0.0083520013	        0.0037797516	       -0.0098672645	       -0.0196847560	        0.0040960773	       -0.0265868776	       -0.1425328555	        0.0888965801	       -0.0897355518	        0.0055000948	        0.2245751969	        0.0040530191	
        0.0440000000	        0.0047319081	       -0.0209195121	        0.0001298249	        0.0088210677	        0.0042140548	       -0.0083928843	       -0.0165326978	        0.0045294866	       -0.0231794131	       -0.1219203980	        0.1088700599	       -0.0769396890	        0.0397343462	        0.2477873302	        0.0044754463	
        0.0450000000	        0.0076440560	       -0.0183686386	        0.0005013804	        0.0092859520	        0.0046453787	       -0.0069358796	       -0.0134200017	        0.0049614440	       -0.0198236171	       -0.1016577624	        0.1285779001	       -0.0643396544	        0.0735966653	        0.2709200871	        0.0048936662	
        0.0460000000	        0.0105258809	       -0.0158602460	        0.0008680981	        0.0097456057	        0.0050730376	       -0.0054984427	       -0.0103513769	        0.0053913461	       -0.0165247014	       -0.0817797310	        0.1479816919	       -0.0519564781	        0.1070319976	        0.2939351078	        0.0053068519	
        0.0470000000	        0.0133734236	       -0.0133977996	        0.0012294112	        0.0101991214	        0.0054964418	       -0.0040825080	       -0.0073308875	        0.0058186223	       -0.0132873582	       -0.0623171172	        0.1670457438	       -0.0398077821	        0.1399915684	        0.3167951346	        0.0057142663	
        0.0480000000	        0.0161833612	       -0.0109842918	        0.0015848133	        0.0106456746	        0.0059150895	       -0.0026897298	       -0.0043619146	        0.0062427517	       -0.0101156853	       -0.0432966653	        0.1857366230	       -0.0279082828	        0.1724323020	        0.3394642574	        0.0061152440	
        0.0490000000	        0.0189526994	       -0.0086222858	        0.0019338677	        0.0110844840	        0.0063285429	       -0.0013215448	       -0.0014471286	        0.0066632798	       -0.0070131940	       -0.0247414186	        0.2040228461	       -0.0162701409	        0.2043162846	        0.3619080703	        0.0065091758	
        0.0500000000	        0.0216785837	       -0.0063139795	        0.0022761896	        0.0115148349	        0.0067364040	        0.0000207375	        0.0014114370	        0.0070798076	       -0.0039828771	       -0.0066713415	        0.2218751332	       -0.0049027276	        0.2356102656	        0.3840937519	        0.0068955122	
        0.0510000000	        0.0243582920	       -0.0040612770	        0.0026114213	        0.0119361314	        0.0071382977	        0.0013358974	        0.0042121584	        0.0074919674	       -0.0010272372	        0.0108960366	        0.2392664323	        0.0061873647	        0.2662850732	        0.4059904050	        0.0072737763	
        0.0520000000	        0.0269893404	       -0.0018658163	        0.0029392281	        0.0123479239	        0.0075338644	        0.0026228143	        0.0069536004	        0.0078994207	        0.0018516650	        0.0279452929	        0.2561713323	        0.0169954946	        0.2963148377	        0.4275696952	        0.0076435760	
        0.0530000000	        0.0295695363	        0.0002710728	        0.0032593027	        0.0127498847	        0.0079227585	        0.0038804876	        0.0096344252	        0.0083018710	        0.0046520656	        0.0444633485	        0.2725658002	        0.0275179480	        0.3256764297	        0.4488061985	        0.0080045937	
        0.0540000000	        0.0320969461	        0.0023483458	        0.0035713613	        0.0131417727	        0.0083046527	        0.0051080487	        0.0122533592	        0.0086990682	        0.0073723963	        0.0604396106	        0.2884274646	        0.0377513993	        0.3543494994	        0.4696772458	        0.0083565670	
        0.0550000000	        0.0345698697	        0.0043651462	        0.0038751371	        0.0135234450	        0.0086792660	        0.0063047562	        0.0148091714	        0.0090907990	        0.0100113284	        0.0758654643	        0.3037356439	        0.0476927668	        0.3823167194	        0.4901625995	        0.0086992910	
        0.0560000000	        0.0369868207	        0.0063208039	        0.0041703859	        0.0138948664	        0.0090463948	        0.0074699804	        0.0173006964	        0.0094768641	        0.0125678469	        0.0907337204	        0.3184716230	        0.0573391826	        0.4095638043	        0.5102441301	        0.0090326261	
        0.0570000000	        0.0393464791	        0.0082149147	        0.0044568936	        0.0142560664	        0.0094058964	        0.0086031890	        0.0197269102	        0.0098570615	        0.0150412656	        0.1050386588	        0.3326198731	        0.0666881248	        0.4360793902	        0.5299055002	        0.0093564800	
        0.0580000000	        0.0416476581	        0.0100473352	        0.0047344703	        0.0146071012	        0.0097576452	        0.0097039290	        0.0220870002	        0.0102311828	        0.0174311871	        0.1187762801	        0.3461684614	        0.0757376313	        0.4618548754	        0.5491318871	        0.0096707858	
        0.0590000000	        0.0438893025	        0.0118180954	        0.0050029387	        0.0149480680	        0.0101015218	        0.0107718043	        0.0243803629	        0.0105990250	        0.0197374463	        0.1319442434	        0.3591073860	        0.0844862468	        0.4868842279	        0.5679097164	        0.0099755033	
        0.0600000000	        0.0460704685	        0.0135273193	        0.0052621306	        0.0152791196	        0.0104374236	        0.0118064661	        0.0266065478	        0.0109604130	        0.0219600697	        0.1445419430	        0.3714266628	        0.0929328053	        0.5111637871	        0.5862264589	        0.0102706251	
        0.0610000000	        0.0481903173	        0.0151751769	        0.0055118912	        0.0156004367	        0.0107652565	        0.0128076395	        0.0287652325	        0.0113152156	        0.0240992629	        0.1565709026	        0.3831158044	        0.1010766063	        0.5346919400	        0.6040707842	        0.0105561639	
        0.0620000000	        0.0502481455	        0.0167618895	        0.0057520916	        0.0159121856	        0.0110849246	        0.0137751829	        0.0308562807	        0.0116633289	        0.0261554266	        0.1680345480	        0.3941640129	        0.1089178639	        0.5574685463	        0.6214330568	        0.0108321386	
        0.0630000000	        0.0522433470	        0.0182877772	        0.0059826515	        0.0162145041	        0.0113963363	        0.0147091271	        0.0328798695	        0.0120046615	        0.0281291410	        0.1789373339	        0.4045600861	        0.1164576841	        0.5794945140	        0.6383056564	        0.0110985778	
        0.0640000000	        0.0541752981	        0.0197532900	        0.0062035446	        0.0165075021	        0.0116994092	        0.0156096441	        0.0348365663	        0.0123391437	        0.0300210795	        0.1892843600	        0.4142922984	        0.1236976403	        0.6007719202	        0.6546829305	        0.0113555233	
        0.0650000000	        0.0560432846	        0.0211590050	        0.0064147737	        0.0167912563	        0.0119940564	        0.0164769634	        0.0367272282	        0.0126667259	        0.0318319448	        0.1990814820	        0.4233490496	        0.1306396075	        0.6213042608	        0.6705610314	        0.0116030150	
        0.0660000000	        0.0578464971	        0.0225056021	        0.0066163449	        0.0170658152	        0.0122801684	        0.0173112995	        0.0385528209	        0.0129873651	        0.0335624934	        0.2083351360	        0.4317200862	        0.1372858525	        0.6410964341	        0.6859377686	        0.0118410801	
        0.0670000000	        0.0595840809	        0.0237938385	        0.0068082597	        0.0173312085	        0.0125576129	        0.0181128509	        0.0403143259	        0.0133010502	        0.0352135779	        0.2170520334	        0.4393973164	        0.1436390957	        0.6601546072	        0.7008124609	        0.0120697341	
        0.0680000000	        0.0612552638	        0.0250245804	        0.0069905202	        0.0175874507	        0.0128262435	        0.0188818769	        0.0420127459	        0.0136078482	        0.0367861620	        0.2252391760	        0.4463747704	        0.1497026258	        0.6784860909	        0.7151857895	        0.0122889855	
        0.0690000000	        0.0628594959	        0.0261988769	        0.0071631488	        0.0178345403	        0.0130859004	        0.0196187709	        0.0436491233	        0.0139079282	        0.0382813128	        0.2329040355	        0.4526482102	        0.1554803724	        0.6960992108	        0.7290596029	        0.0124988446	
        0.0700000000	        0.0643964899	        0.0273179758	        0.0073262079	        0.0180724466	        0.0133364121	        0.0203240572	        0.0452245415	        0.0142015507	        0.0397001556	        0.2400545160	        0.4582153411	        0.1609767122	        0.7130031786	        0.7424366305	        0.0126993272	
        0.0710000000	        0.0658661770	        0.0283832623	        0.0074798044	        0.0183010885	        0.0135776032	        0.0209983420	        0.0467401464	        0.0144890282	        0.0410437786	        0.2466985555	        0.4630765254	        0.1661962877	        0.7292078771	        0.7553203120	        0.0128904465	
